<?xml version="1.0" encoding="utf-8"?>
<!-- Generator: Adobe Illustrator 23.0.1, SVG Export Plug-In . SVG Version: 6.00 Build 0)  -->
<svg version="1.1" id="Layer_1" xmlns="http://www.w3.org/2000/svg" xmlns:xlink="http://www.w3.org/1999/xlink" x="0px" y="0px"
	 viewBox="0 0 573 150" style="enable-background:new 0 0 573 150;" xml:space="preserve">
<style type="text/css">
	.st0{fill:#3C3C6E;}
	.st1{fill:#E65A46;}
</style>
<path class="st0" d="M175,91.4c-0.3-1.6,3.7-12.1,4.6-11.7c1.9,1.1,8,5.5,14.9,5.5c4.8,0,7.9-1.5,7.9-5c0-2.6-2-4.6-10.3-6.3
	c-10.7-2.2-16.6-7.2-16.6-17.9c0-9.3,7.6-17.4,21.3-17.4c8.6,0,15.9,2.3,19.1,4.8c1.1,0.8-3.8,11.4-4.6,11.3
	c-4.4-2.2-9.2-3.4-14.1-3.6c-4.9,0-7.2,2-7.2,4.7c0,2.5,1.4,3.8,9.3,5.6c10.5,2.4,18.6,6.7,18.6,17.9c0,8.6-6.9,17.7-22.8,17.7
	C185.9,97.2,178,93.6,175,91.4L175,91.4z"/>
<path class="st0" d="M263.2,77.5c0,10.5-7.6,20-20.6,20.2c-11.6,0-20.7-8-20.7-21.3c-0.1-11.1,8.9-20.2,20-20.2c0.2,0,0.4,0,0.5,0
	C254,56.3,263.2,64.1,263.2,77.5z M243.1,68.7c-5.8-0.2-8.6,3.5-8.6,8.8c0,5.7,3.7,8.8,7.5,8.9c5.7,0.2,8.7-3.3,8.7-9
	C250.7,70.9,246.9,68.8,243.1,68.7L243.1,68.7z"/>
<path class="st0" d="M282.7,35.5c0.6,1-0.6,55.7-1,62c0,0-11,0.1-11.6-0.3c-0.7-0.5-0.7-60.3,0.6-61.4
	C271.8,34.7,282.4,34.9,282.7,35.5z"/>
<path class="st0" d="M297.7,36c4.4,0,7.5,3,7.5,8.1c0,3.6-3.1,6.4-7.5,6.4c-4.2,0-7.2-2.4-7.2-6.9C290.5,39.2,291.8,36,297.7,36z
	 M304.2,56.6c0.2,0.3-0.4,39.5-0.7,40.1c-0.3,0.6-12,0.3-12.1,0.1c-0.2-0.2-0.9-39.2-0.4-40.1C291.5,55.8,303.8,56.3,304.2,56.6
	L304.2,56.6z"/>
<path class="st0" d="M353,56.7c0.2,0.9,0.7,26.8,0.7,31.8c0.2,21.5-10.6,26.4-20.8,26.4c-9.7,0-16.4-4.1-17.4-5.9
	c1-3.1,2.3-6,4.1-8.7c0.4-0.4,4.7,3.6,11.6,3.6c7,0,9.5-5.1,9.4-12.2c-0.7,1.1-3.9,4.8-11.2,4.8c-10.4,0-18.8-8.4-18.8-18.7
	c0-0.2,0-0.3,0-0.5c0-12.7,9.2-20.7,19.1-20.7c4.4-0.1,8.6,1.6,11.7,4.7c0-0.5,0.2-3.9,0.2-4.4C342.9,55.8,352.7,56.5,353,56.7
	L353,56.7z M332.6,85.9c4.4,0,8.1-3.1,8.1-8.5c0-4.9-2.6-8.6-8.1-8.6c-4.4,0-7.9,2.9-7.9,8.5C324.7,82.4,327.5,85.9,332.6,85.9z"/>
<path class="st0" d="M387.8,96.6c0.1-1.7,0-4.1,0.1-4.7c-2.8,3.8-7.3,6.1-12.1,6c-9.9,0-14.6-6-14.6-17.5c0-5.9,0.8-19.8,1.1-23.7
	c0.2-0.8,12.4-0.7,12.6-0.4c0.2,0.9-0.7,19.5-0.7,22.7c0,4.6,2,7.3,6.2,7.3c4.5,0,6.8-3.4,6.9-7c0-2.4,0.3-22.4,0.7-22.8
	c0.2-0.3,12.1-0.2,12.4,0.3c0.1,0.3-0.2,22.2-0.5,39.6C399.2,97.7,388.6,97.4,387.8,96.6L387.8,96.6z"/>
<path class="st0" d="M415.6,36c4.4,0,7.5,3,7.5,8.1c0,3.6-3.1,6.4-7.5,6.4c-4.2,0-7.2-2.4-7.2-6.9C408.4,39.2,409.7,36,415.6,36z
	 M422.1,56.6c0.2,0.3-0.4,39.5-0.7,40.1c-0.3,0.6-12,0.3-12.1,0.1c-0.2-0.2-0.9-39.2-0.4-40.1C409.4,55.8,421.8,56.3,422.1,56.6
	L422.1,56.6z"/>
<path class="st0" d="M428.5,76.3c0-12.7,9.4-19.7,18.9-19.8c5.4,0,9.9,3.3,10.5,4.3c0-2.7-0.2-24.6,0.6-25
	c0.7-0.6,11.9-1.1,13.5-0.2c0.2,0.1-0.8,60.5-1.1,61.4c-0.2,0.2-9.1,1.1-12.1-0.1c0-0.6-0.2-3.9-0.2-4.5c-0.7,1-5.4,4.7-12.2,4.7
	C437.2,97.1,428.5,89.9,428.5,76.3z M450.5,85.3c5.5,0,8.1-3.7,8.1-8.6c0-5.4-3.7-8.5-8.1-8.5c-5.1,0-8,3.5-8,8.6
	C442.5,82.4,446,85.3,450.5,85.3z"/>
<path class="st0" d="M499.3,87.2c3.4,0,6.7-1,9.5-2.9c0.8,0.8,4.2,7.6,4.2,8.8c-2.2,2-7.8,4.7-14.4,4.7c-14.7,0-20.7-9.9-20.7-20.3
	c0-11,6.8-21.3,19.6-21.3c10.8,0,17.4,8.2,17.4,17.3c0.1,2.1-0.2,4.2-0.7,6.3c-4.1,0.6-18.8,0.6-23.7,0.4
	C490.6,84.5,493.7,87.2,499.3,87.2L499.3,87.2z M503.3,72.4c0.2-4-1.9-7.1-5.8-7.1c-4.2,0-7,3.2-7,7.3L503.3,72.4z"/>
<path class="st1" d="M138.4,111.2l3.6-4.8c0.1-0.1,0.1-0.2,0.1-0.3l1.4-5.9c0-0.4,0.4-0.6,0.8-0.6c0.2,0,0.4,0.1,0.5,0.3l5.2,9.3
	c0.2,0.4,0,0.9-0.3,1.1c-0.1,0-0.1,0.1-0.2,0.1l-10.4,2c-0.4,0-0.7-0.2-0.8-0.6C138.2,111.6,138.2,111.4,138.4,111.2z"/>
<path class="st1" d="M11.6,38.8L8,43.6c-0.1,0.1-0.1,0.2-0.1,0.3l-1.4,5.9c0,0.4-0.4,0.6-0.8,0.6c-0.2,0-0.4-0.1-0.5-0.3l-5.2-9.3
	c-0.2-0.4,0-0.9,0.3-1.1c0.1,0,0.1-0.1,0.2-0.1l10.4-2c0.4,0,0.7,0.2,0.8,0.6C11.8,38.4,11.8,38.6,11.6,38.8z"/>
<path class="st1" d="M38.8,138.4l4.8,3.6c0.1,0.1,0.2,0.1,0.3,0.1l5.9,1.4c0.4,0,0.6,0.4,0.6,0.8c0,0.2-0.1,0.4-0.3,0.5l-9.3,5.2
	c-0.4,0.2-0.9,0-1.1-0.3c0-0.1-0.1-0.1-0.1-0.2l-2-10.4c0-0.4,0.2-0.7,0.6-0.8C38.4,138.2,38.6,138.2,38.8,138.4z"/>
<path class="st1" d="M111.2,11.6L106.4,8c-0.1-0.1-0.2-0.1-0.3-0.1l-5.9-1.4c-0.4,0-0.6-0.4-0.6-0.8c0-0.2,0.1-0.4,0.3-0.5l9.3-5.2
	c0.4-0.2,0.9,0,1.1,0.3c0,0.1,0.1,0.1,0.1,0.2l2,10.4c0,0.4-0.2,0.7-0.6,0.8C111.6,11.8,111.4,11.8,111.2,11.6z"/>
<g>
	<path class="st0" d="M80.7,14.3c0.1-1.4-1-2.5-2.4-2.6c-1.4-0.1-2.5,1-2.6,2.4l0,0l-0.5,9c1.7,0,3.3,0.1,5,0.3L80.7,14.3z"/>
	<path class="st0" d="M69.3,135.8c-0.1,1.4,1,2.5,2.4,2.6c1.4,0.1,2.5-1,2.6-2.4l0.5-9.1c-1.7,0-3.3-0.1-5-0.3L69.3,135.8z"/>
	<path class="st0" d="M89.9,124.7l5.9,16.2c0.6,1.6,2.3,2.4,3.8,1.8c1.6-0.6,2.4-2.3,1.8-3.8c0,0,0,0,0,0l-5.9-16.2
		C93.7,123.5,91.8,124.2,89.9,124.7L89.9,124.7z"/>
	<path class="st0" d="M60.1,25.3L54.2,9.2c-0.6-1.6-2.3-2.4-3.8-1.8s-2.4,2.3-1.8,3.8c0,0,0,0,0,0l5.9,16.1
		C56.3,26.5,58.2,25.8,60.1,25.3z"/>
	<path class="st0" d="M35.3,28.8c-0.9-1-2.5-1.1-3.5-0.1s-1.1,2.5-0.1,3.5c0,0,0,0,0,0l6.2,6.6c1.2-1.2,2.4-2.3,3.6-3.4L35.3,28.8z"
		/>
	<path class="st0" d="M118.4,117.9l-6.2-6.6c-1.2,1.2-2.4,2.3-3.6,3.4l6.2,6.6c0.9,1,2.5,1.1,3.5,0.1
		C119.3,120.5,119.3,118.9,118.4,117.9z"/>
	<path class="st0" d="M14.3,69.4c-1.4-0.1-2.5,1-2.6,2.4c-0.1,1.4,1,2.5,2.4,2.6l9,0.5c0-1.7,0.1-3.3,0.3-5L14.3,69.4z"/>
	<path class="st0" d="M135.7,80.7c1.4,0.1,2.5-1,2.6-2.4c0.1-1.4-1-2.5-2.4-2.6l-9-0.5c0,1.7-0.1,3.3-0.3,5L135.7,80.7z"/>
	<path class="st0" d="M124.7,60.1l16.1-5.9c1.5-0.6,2.3-2.3,1.8-3.8c-0.6-1.5-2.3-2.3-3.8-1.8l-16.1,5.9
		C123.5,56.3,124.2,58.2,124.7,60.1L124.7,60.1z"/>
	<path class="st0" d="M25.3,90L9.1,95.8c-1.6,0.6-2.4,2.3-1.8,3.8c0.6,1.6,2.3,2.4,3.8,1.8c0,0,0,0,0,0l16.1-5.9
		C26.5,93.7,25.9,91.9,25.3,90z"/>
	<path class="st0" d="M121.3,35.3c1-0.9,1.1-2.5,0.1-3.5c-0.9-1-2.5-1.1-3.5-0.1l-6.6,6.2c1.2,1.2,2.3,2.4,3.4,3.6L121.3,35.3z"/>
	<path class="st0" d="M28.7,114.8c-1,0.9-1.1,2.5-0.1,3.5c0.9,1,2.5,1.1,3.5,0.1l0,0l6.7-6.2c-1.2-1.2-2.3-2.4-3.4-3.6L28.7,114.8z"
		/>
	<path class="st0" d="M97.8,26.4c0,0-41.4,22.6-48,36.7c-6.7,13.9-0.9,30.5,13,37.2c13.9,6.7,30.5,0.9,37.2-13
		c0.1-0.2,0.2-0.3,0.2-0.5C106.9,72.7,97.8,26.4,97.8,26.4z M70.1,86c-5.6-2.6-8-9.3-5.4-14.8c2.6-5.6,9.3-8,14.8-5.4
		c5.6,2.6,8,9.3,5.4,14.8C82.3,86.2,75.6,88.6,70.1,86C70.1,86,70.1,86,70.1,86z"/>
</g>
</svg>
